HIERARCHY
ROOT hip
{
	OFFSET 0.000000 0.000000 0.000000 
	CHANNELS 6 Xposition Yposition Zposition Xrotation Zrotation Yrotation
	JOINT abdomen
	{
		OFFSET 0.000000 3.402643 0.000000 
		CHANNELS 3 Xrotation Zrotation Yrotation
		JOINT chest
		{
			OFFSET 0.000000 8.438565 -0.680529 
			CHANNELS 3 Xrotation Zrotation Yrotation
			JOINT neck
			{
				OFFSET 0.000000 10.207942 -0.272212 
				CHANNELS 3 Xrotation Zrotation Yrotation
				JOINT head
				{
					OFFSET 0.000000 3.130431 0.000000 
					CHANNELS 3 Xrotation Zrotation Yrotation
					End Site
					{
						OFFSET 0.000000 3.130435 0.000000 
					}
				}
			}
			JOINT lCollar
			{
				OFFSET 3.470700 6.669187 -0.816635 
				CHANNELS 3 Yrotation Zrotation Xrotation
				JOINT lShldr
				{
					OFFSET 3.198488 0.000000 0.000000 
					CHANNELS 3 Zrotation Yrotation Xrotation
					JOINT lForeArm
					{
						OFFSET 10.139888 0.000000 0.000000 
						CHANNELS 3 Yrotation Zrotation Xrotation
						JOINT lHand
						{
							OFFSET 8.370511 0.000000 0.000000 
							CHANNELS 3 Zrotation Yrotation Xrotation
							End Site
							{
								OFFSET 4.083176 0.000000 0.000000 
							}
						}
					}
				}
			}
			JOINT rCollar
			{
				OFFSET -3.470700 6.669187 -0.816635 
				CHANNELS 3 Yrotation Zrotation Xrotation
				JOINT rShldr
				{
					OFFSET -3.198488 0.000000 0.000000 
					CHANNELS 3 Zrotation Yrotation Xrotation
					JOINT rForeArm
					{
						OFFSET -10.139888 0.000000 0.000000 
						CHANNELS 3 Yrotation Zrotation Xrotation
						JOINT rHand
						{
							OFFSET -8.370511 0.000000 0.000000 
							CHANNELS 3 Zrotation Yrotation Xrotation
							End Site
							{
								OFFSET -4.083176 0.000000 0.000000 
							}
						}
					}
				}
			}
		}
	}
	JOINT lThigh
	{
		OFFSET 5.308129 -1.633274 1.361059 
		CHANNELS 3 Xrotation Zrotation Yrotation
		JOINT lShin
		{
			OFFSET -2.041588 -20.007561 0.000000 
			CHANNELS 3 Xrotation Zrotation Yrotation
			JOINT lFoot
			{
				OFFSET 0.000000 -19.190928 -1.224953 
				CHANNELS 3 Xrotation Yrotation Zrotation
				End Site
				{
					OFFSET 0.000000 -2.449906 4.627600 
				}
			}
		}
	}
	JOINT rThigh
	{
		OFFSET -5.308129 -1.633274 1.361059 
		CHANNELS 3 Xrotation Zrotation Yrotation
		JOINT rShin
		{
			OFFSET 2.041588 -20.007561 0.000000 
			CHANNELS 3 Xrotation Zrotation Yrotation
			JOINT rFoot
			{
				OFFSET 0.000000 -19.190928 -1.224953 
				CHANNELS 3 Xrotation Yrotation Zrotation
				End Site
				{
					OFFSET 0.000000 -2.449906 4.627600 
				}
			}
		}
	}
}
MOTION
Frames: 15
Frame Time: 0.033333
-0.114776 43.722942 0.355688 -0.443265 -7.519309 86.561409 0.000000 0.000000 0.000000 1.361881 -4.637367 5.407022 1.989376 13.550549 1.004912 -14.005373 12.538213 -20.048315 0.650557 25.002275 24.242996 -100.242226 -14.901648 -4.178914 -36.749332 2.430969 28.774836 -5.773694 11.210234 48.905308 -13.674199 -16.908144 20.199175 78.680382 24.675535 72.327866 17.780722 -21.877987 -2.503313 26.728428 1.309142 -9.230113 -3.359564 11.205788 20.934893 63.788147 7.839046 -1.002294 7.669986 -0.907478 -20.071211 -7.025554 3.688435 2.446175 17.729593 0.894762 0.801571 -9.074401 -15.015950 24.438055 
-0.288668 43.729725 0.622246 -0.482243 -7.128655 87.061340 0.000000 0.000000 0.000000 2.028694 -4.830969 5.356208 2.476828 12.067557 0.893051 -13.799478 12.483500 -19.593836 1.804751 24.107256 23.749937 -99.730476 -14.495142 -4.480049 -36.783215 1.836522 24.691322 -2.090338 9.557342 50.071564 -12.937945 -18.023094 20.155605 78.898026 25.868284 72.174477 17.993298 -22.153137 -2.437652 26.470440 0.726125 -9.330070 -8.229849 11.182596 20.644056 68.541222 10.238036 -0.616213 8.151287 1.489160 -20.319820 -5.015530 4.078505 2.498232 18.073454 0.845946 0.820510 -10.708553 -15.498497 24.223528 
-0.504412 43.786045 0.785640 -0.068864 -6.943354 87.117645 0.000000 0.000000 0.000000 2.451541 -5.210097 5.264674 3.238590 9.578685 0.693253 -13.311240 11.713438 -18.965893 3.086015 22.651051 23.275139 -98.751488 -13.938486 -5.046771 -36.900944 1.347507 21.511457 0.376495 8.265098 50.764812 -12.026467 -19.533604 20.126724 79.665039 27.211405 72.293060 17.626562 -22.178547 -3.650609 25.707090 0.119729 -9.539570 -12.769303 10.256690 19.954008 70.762451 11.642258 -0.377141 7.213862 3.390675 -20.221121 -3.208658 3.988619 2.427485 17.980991 0.728821 0.790207 -11.843584 -15.317910 24.296499 
-0.743920 43.883957 0.830391 0.865759 -6.962103 86.671989 0.000000 0.000000 0.000000 2.649997 -5.736088 5.144486 4.121815 5.677269 0.399792 -12.618607 9.489579 -18.184406 4.633086 20.673607 22.798876 -97.273270 -13.112734 -5.908163 -37.132324 0.911050 20.587214 0.696581 8.255137 50.911747 -10.786114 -21.500017 20.169432 80.753006 28.505783 72.599091 17.379333 -22.420015 -5.269471 24.788670 -0.120668 -9.692270 -16.635080 8.646114 19.008833 69.884773 11.574213 -0.361554 5.928589 4.801222 -19.778021 -1.423363 3.284605 2.165162 17.322586 0.611837 0.705732 -12.526314 -14.558123 24.403667 
-0.971111 44.008827 0.784860 2.095001 -6.841170 85.833778 0.000000 0.000000 0.000000 2.927966 -6.319931 5.019020 4.922485 0.899011 0.039448 -12.070675 5.978514 -17.045652 6.226027 18.506077 22.418022 -95.749611 -12.059853 -6.814166 -37.414940 0.635925 21.158808 -0.216106 9.090428 50.741234 -9.319126 -23.449688 20.389748 81.441261 29.785851 72.677155 17.817675 -23.133322 -6.105888 24.220997 -0.019770 -9.727798 -19.414064 6.885046 18.128149 66.368248 10.382301 -0.538695 4.643974 5.582041 -19.480991 0.625036 2.128914 1.786833 16.346790 0.632017 0.626192 -13.256656 -13.536362 23.924589 
-1.178126 44.131638 0.688408 3.273483 -6.571386 84.731506 0.000000 0.000000 0.000000 3.392794 -6.765575 4.911678 5.413154 -3.928730 -0.315345 -12.060084 1.681348 -15.721612 7.555789 16.541056 22.218176 -94.582985 -10.858414 -7.531330 -37.704552 0.588937 22.099030 -1.440358 10.152787 50.471733 -7.806757 -25.046167 20.785906 81.533897 31.068949 72.429268 18.846094 -24.263685 -5.896743 24.093924 0.328226 -9.629709 -21.004990 5.507284 17.499868 60.939602 8.403119 -0.770096 3.577189 5.906997 -19.522480 2.854026 0.896688 1.344200 15.249677 0.717252 0.577799 -13.669078 -12.392872 24.039303 
-1.376095 44.228439 0.567463 4.215123 -6.320887 83.411659 0.000000 0.000000 0.000000 3.866642 -6.986173 4.851196 5.499243 -8.440981 -0.639630 -12.591788 -2.631627 -14.536794 8.409826 15.093016 22.147993 -94.117195 -9.408035 -7.866982 -38.013680 0.737953 22.620241 -2.275552 11.043356 50.286465 -6.491076 -26.267281 21.214598 81.309151 32.508598 71.972733 20.008703 -25.478148 -4.755349 24.093651 1.002335 -9.442739 -21.596149 4.694066 17.176771 53.722656 5.709740 -1.091544 2.678648 6.279428 -19.519365 5.203476 -0.087215 1.015022 13.883282 0.737514 0.450327 -13.796176 -11.408943 24.549917 
-1.557843 44.265640 0.455661 4.569865 -6.434729 81.879303 0.000000 0.000000 0.000000 3.982341 -6.702675 4.905309 5.167932 -12.306257 -0.925004 -13.462858 -6.130876 -13.439580 8.714011 14.373006 22.174988 -94.560516 -7.601584 -7.693418 -38.372101 1.172096 22.556540 -2.921449 11.691053 50.152561 -5.589200 -27.174213 21.522036 81.243156 33.967747 71.595123 20.925247 -26.487341 -3.147949 23.698620 1.821095 -9.287435 -21.626528 4.831225 17.229118 45.231842 2.613241 -1.402174 1.877389 7.006943 -19.625017 7.348242 -0.389457 0.865527 12.368678 0.591408 0.300852 -14.141144 -10.330221 24.577785 
-1.691272 44.240768 0.344181 4.513562 -6.727312 80.377457 0.000000 0.000000 0.000000 3.889308 -6.109052 5.033921 4.608327 -15.360744 -1.147118 -14.337182 -8.636161 -12.213224 8.672959 14.024062 22.234747 -95.389030 -5.814001 -7.266519 -38.762997 1.679607 22.458141 -3.695420 12.566723 49.974976 -4.953708 -27.773630 21.757191 81.375587 35.214470 71.359955 21.353588 -27.012110 -2.491094 23.045347 2.426608 -9.270235 -21.164993 5.395653 17.455606 36.679321 -0.266073 -1.569239 1.192504 8.070680 -20.249582 9.301339 -0.301736 0.866260 11.013715 0.338284 0.153729 -14.780280 -9.259147 24.313692 
-1.738236 44.158737 0.206417 4.179241 -6.730268 79.001495 0.000000 0.000000 0.000000 4.050737 -5.328529 5.189421 4.018446 -17.690081 -1.329552 -15.270859 -10.659494 -10.906939 8.254505 13.682988 22.401117 -96.255096 -4.223794 -6.802320 -39.188175 2.190541 22.181831 -4.577563 13.671760 49.761967 -4.464839 -27.917994 21.982098 81.288849 36.165318 71.087555 21.413397 -26.897116 -3.254502 22.224758 2.723372 -9.373838 -19.846466 5.912920 17.762125 28.319506 -2.515582 -1.593595 0.233951 9.013259 -21.125362 11.674009 -0.136324 0.883671 9.880070 0.115690 -0.005845 -15.391272 -8.240862 24.604332 
-1.691459 44.007618 0.040137 3.471605 -6.784519 77.860283 0.000000 0.000000 0.000000 4.112979 -4.266368 5.415551 3.538340 -19.266174 -1.448540 -16.040758 -12.090998 -9.853909 7.197912 13.462226 22.721556 -97.251915 -2.903978 -6.241006 -39.522530 3.125795 21.493227 -5.238496 14.633134 49.583721 -4.610788 -27.558535 21.952808 80.972778 36.643787 70.803688 21.639162 -26.221516 -4.699432 22.039749 2.092137 -9.613808 -18.499479 6.420784 18.072754 21.658461 -3.597570 -1.422150 -1.022370 8.990801 -22.101259 14.019753 0.175336 0.973597 9.278893 -0.058601 -0.128305 -15.881400 -7.418387 25.650700 
-1.567743 43.805691 -0.120250 2.685628 -6.926052 76.998962 0.000000 0.000000 0.000000 3.981390 -3.341544 5.616996 3.232713 -20.012554 -1.512884 -16.548147 -12.918067 -9.018650 6.034706 13.572141 23.019016 -98.154266 -2.097678 -5.709106 -39.529114 4.218473 20.467402 -5.051438 15.367185 49.624767 -5.288754 -26.784336 21.713703 80.566116 36.638737 70.581177 21.933674 -25.549625 -4.987032 22.128765 1.753018 -9.724517 -17.690458 6.890237 18.331524 18.526621 -3.828228 -1.291457 -1.793155 8.372972 -22.966505 16.037851 0.507534 1.056057 9.363244 -0.302555 -0.169958 -16.659651 -6.858871 26.903397 
-1.259605 43.606232 -0.311271 2.142684 -6.499398 76.328972 0.000000 0.000000 0.000000 3.979190 -2.747278 5.746220 3.346786 -20.483963 -1.546803 -16.689653 -13.198240 -8.568587 5.407165 13.423115 23.204088 -98.271416 -1.506998 -5.650783 -39.545124 4.608201 19.669979 -4.800159 15.654894 49.700157 -5.876648 -25.960493 21.534582 80.313728 35.911133 70.611954 21.940487 -25.019049 -4.581642 22.343346 1.759854 -9.746634 -16.262951 6.888351 18.467377 17.543493 -3.711347 -1.174642 -1.720142 7.163673 -21.310699 18.426096 0.321697 0.985625 10.098999 -0.468411 -0.155408 -17.206974 -6.671967 28.652012 
-0.732862 43.455368 -0.588636 2.061150 -5.748257 75.544510 0.000000 0.000000 0.000000 3.675202 -2.436391 5.829607 3.978899 -21.130695 -1.600900 -16.577087 -12.906169 -8.068886 5.603402 12.377340 23.257298 -97.088280 -0.813401 -6.421976 -39.891087 4.049177 19.801243 -4.559054 15.629106 49.763111 -6.082347 -25.148739 21.550421 80.019341 34.547165 70.773071 21.664633 -24.377056 -3.700890 22.899031 1.787030 -9.702616 -13.988497 6.166443 18.435827 17.239134 -3.489612 -1.113753 -1.244754 6.348376 -17.990183 20.795252 -0.712847 0.656343 11.658738 -0.468522 -0.023847 -17.409876 -6.631083 30.609823 
-0.114632 43.401775 -0.927540 2.530547 -5.346374 74.792564 0.000000 0.000000 0.000000 2.551104 -2.419477 5.858714 5.008314 -21.825598 -1.656828 -16.419992 -12.466154 -7.645232 6.069863 10.750616 23.317337 -95.173859 -0.240411 -7.654621 -40.323742 3.157213 20.487646 -4.311894 15.183096 49.803158 -6.229475 -24.363485 21.582077 79.783516 32.777103 71.057747 21.067341 -23.458107 -2.573782 23.760347 1.715464 -9.634038 -11.860124 4.848825 18.191105 17.095814 -3.255734 -1.033873 -0.833927 6.016470 -14.250669 21.912035 -2.509669 0.118879 14.451285 -0.195315 0.267561 -16.847672 -6.584521 32.884407 
